nColumns=28
nRows=33
DataType=double
version=3
OpenSimVersion=4.1
endheader
time	ground_force_1_vx	ground_force_1_vy	ground_force_1_vz	ground_force_1_px	ground_force_1_py	ground_force_1_pz	ground_force_1_mx	ground_force_1_my	ground_force_1_mz	ground_force_2_vx	ground_force_2_vy	ground_force_2_vz	ground_force_2_px	ground_force_2_py	ground_force_2_pz	ground_force_2_mx	ground_force_2_my	ground_force_2_mz	ground_force_3_vx	ground_force_3_vy	ground_force_3_vz	ground_force_3_px	ground_force_3_py	ground_force_3_pz	ground_force_3_mx	ground_force_3_my	ground_force_3_mz
3.2	17.5677	294.626	-40.7977	-0.242047	0.006	-0.383975	0	-1.66318	0	6.05527	308.677	45.8891	-0.207355	0.006	-0.768231	0	2.59808	0	0	0	0	0	0	0	0	0	0
3.21	17.6793	302.309	-42.2128	-0.240853	0.006	-0.383164	0	-1.81462	0	5.54286	316.321	47.3513	-0.205813	0.006	-0.769053	0	2.80649	0	0	0	0	0	0	0	0	0	0
3.22	17.5528	309.889	-43.6691	-0.23955	0.006	-0.382356	0	-1.96332	0	4.87696	323.292	48.587	-0.204239	0.006	-0.769775	0	3.00873	0	0	0	0	0	0	0	0	0	0
3.23	17.212	317.212	-45.1398	-0.238167	0.006	-0.381566	0	-2.10795	0	4.0804	329.526	49.5769	-0.202648	0.006	-0.770394	0	3.20454	0	0	0	0	0	0	0	0	0	0
3.24	16.6857	324.136	-46.5898	-0.236732	0.006	-0.380806	0	-2.24737	0	3.18512	334.961	50.3158	-0.201059	0.006	-0.770913	0	3.39339	0	0	0	0	0	0	0	0	0	0
3.25	16.0088	330.54	-47.9803	-0.235272	0.006	-0.380089	0	-2.38074	0	2.2289	339.531	50.8096	-0.199486	0.006	-0.771336	0	3.57437	0	0	0	0	0	0	0	0	0	0
3.26	15.2236	336.34	-49.2793	-0.233807	0.006	-0.379424	0	-2.50768	0	1.25125	343.179	51.0698	-0.197943	0.006	-0.771669	0	3.74654	0	0	0	0	0	0	0	0	0	0
3.27	14.3778	341.49	-50.4685	-0.232358	0.006	-0.378816	0	-2.62836	0	0.290964	345.865	51.1109	-0.196438	0.006	-0.77192	0	3.90916	0	0	0	0	0	0	0	0	0	0
3.28	13.5186	345.974	-51.5439	-0.230938	0.006	-0.378265	0	-2.74309	0	-0.616393	347.581	50.9507	-0.194979	0.006	-0.772099	0	4.06183	0	0	0	0	0	0	0	0	0	0
3.29	12.6881	349.804	-52.5117	-0.22956	0.006	-0.377771	0	-2.85199	0	-1.44235	348.361	50.6121	-0.193568	0.006	-0.772216	0	4.20455	0	0	0	0	0	0	0	0	0	0
3.3	11.921	353.013	-53.3805	-0.228234	0.006	-0.377328	0	-2.95486	0	-2.16929	348.284	50.1227	-0.192206	0.006	-0.772288	0	4.33785	0	0	0	0	0	0	0	0	0	0
3.31	11.2426	355.648	-54.1551	-0.226967	0.006	-0.376935	0	-3.05129	0	-2.79334	347.474	49.5147	-0.190891	0.006	-0.772327	0	4.46257	0	0	0	0	0	0	0	0	0	0
3.32	10.6657	357.766	-54.8326	-0.225762	0.006	-0.37659	0	-3.14086	0	-3.32308	346.086	48.8243	-0.189618	0.006	-0.772351	0	4.57974	0	0	0	0	0	0	0	0	0	0
3.33	10.1902	359.422	-55.4011	-0.22462	0.006	-0.376293	0	-3.22332	0	-3.77656	344.296	48.0897	-0.188384	0.006	-0.772373	0	4.69039	0	0	0	0	0	0	0	0	0	0
3.34	9.80519	360.671	-55.8433	-0.223542	0.006	-0.376043	0	-3.29878	0	-4.17723	342.272	47.3489	-0.187184	0.006	-0.772409	0	4.79542	0	0	0	0	0	0	0	0	0	0
3.35	9.49277	361.566	-56.1432	-0.222523	0.006	-0.375841	0	-3.36783	0	-4.54729	340.16	46.6343	-0.186013	0.006	-0.77247	0	4.89552	0	0	0	0	0	0	0	0	0	0
3.36	9.23163	362.165	-56.2893	-0.221562	0.006	-0.375687	0	-3.43178	0	-4.90233	338.077	45.9693	-0.184869	0.006	-0.772563	0	4.9913	0	0	0	0	0	0	0	0	0	0
3.37	9.00024	362.53	-56.2751	-0.220654	0.006	-0.375581	0	-3.49246	0	-5.25137	336.119	45.3688	-0.183756	0.006	-0.772691	0	5.08353	0	0	0	0	0	0	0	0	0	0
3.38	8.78042	362.723	-56.0984	-0.219797	0.006	-0.375523	0	-3.55195	0	-5.59914	334.375	44.8402	-0.182678	0.006	-0.772853	0	5.17317	0	0	0	0	0	0	0	0	0	0
3.39	8.55835	362.798	-55.761	-0.21899	0.006	-0.37551	0	-3.61223	0	-5.94928	332.932	44.3829	-0.181645	0.006	-0.773044	0	5.26118	0	0	0	0	0	0	0	0	0	0
3.4	8.32448	362.799	-55.2673	-0.218229	0.006	-0.375541	0	-3.67504	0	-6.30618	331.87	43.9882	-0.180664	0.006	-0.773255	0	5.34858	0	0	0	0	0	0	0	0	0	0
3.41	8.07494	362.763	-54.6215	-0.217515	0.006	-0.375612	0	-3.74184	0	-6.67426	331.266	43.6418	-0.179741	0.006	-0.773479	0	5.43646	0	0	0	0	0	0	0	0	0	0
3.42	7.81264	362.719	-53.828	-0.216846	0.006	-0.375717	0	-3.81381	0	-7.0564	331.175	43.3283	-0.178885	0.006	-0.773707	0	5.52577	0	0	0	0	0	0	0	0	0	0
3.43	7.54684	362.684	-52.892	-0.216222	0.006	-0.375854	0	-3.89177	0	-7.45226	331.623	43.0348	-0.178098	0.006	-0.773931	0	5.61696	0	0	0	0	0	0	0	0	0	0
3.44	7.29223	362.672	-51.8202	-0.215642	0.006	-0.376016	0	-3.97609	0	-7.85616	332.593	42.7498	-0.177384	0.006	-0.774147	0	5.70985	0	0	0	0	0	0	0	0	0	0
3.45	7.06722	362.677	-50.6208	-0.215107	0.006	-0.376198	0	-4.0666	0	-8.2563	334.027	42.4626	-0.176738	0.006	-0.77435	0	5.80364	0	0	0	0	0	0	0	0	0	0
3.46	6.8915	362.675	-49.3045	-0.214614	0.006	-0.376393	0	-4.1624	0	-8.63662	335.844	42.1655	-0.176159	0.006	-0.774538	0	5.89713	0	0	0	0	0	0	0	0	0	0
3.47	6.78259	362.619	-47.8858	-0.214161	0.006	-0.376592	0	-4.26193	0	-8.98081	337.96	41.8541	-0.175639	0.006	-0.774711	0	5.98886	0	0	0	0	0	0	0	0	0	0
3.48	6.75112	362.446	-46.3839	-0.213745	0.006	-0.376787	0	-4.36312	0	-9.2787	340.298	41.528	-0.17517	0.006	-0.774869	0	6.07722	0	0	0	0	0	0	0	0	0	0
3.49	6.79727	362.096	-44.8212	-0.213359	0.006	-0.376971	0	-4.46363	0	-9.53089	342.791	41.1919	-0.174746	0.006	-0.775014	0	6.16054	0	0	0	0	0	0	0	0	0	0
3.5	6.91004	361.521	-43.2233	-0.212996	0.006	-0.377142	0	-4.56092	0	-9.74887	345.376	40.8546	-0.174358	0.006	-0.775145	0	6.23714	0	0	0	0	0	0	0	0	0	0
3.51	7.06959	360.698	-41.6167	-0.212648	0.006	-0.377294	0	-4.65246	0	-9.95197	347.993	40.5268	-0.173996	0.006	-0.775264	0	6.30531	0	0	0	0	0	0	0	0	0	0
3.52	7.25125	359.626	-40.0265	-0.212306	0.006	-0.377429	0	-4.73602	0	-10.1619	350.569	40.2174	-0.173653	0.006	-0.775368	0	6.3635	0	0	0	0	0	0	0	0	0	0
